PathFileType	4	(X/Y/Z)	Kaydara																																																																																																																									
DataRate	CameraRate	NumFrames	NumMarkers	Units	OrigDataRate	OrigDataStartFrame	OrigNumFrames																																																																																																																					
30	30	9	41	mm	30	173	345																																																																																																																					
Frame#	Time	NABA_LFHD			NABA_RFHD			NABA_LBHD			NABA_RBHD			NABA_LFTShould			NABA_RFTShould			NABA_LRRShould			NABA_RRRShould			NABA_T10			NABA_STRN			NABA_TRUN			NABA_LSHO			NABA_LUPA			NABA_LELB			NABA_LFRM			NABA_LWRA			NABA_LWRB			NABA_LFIN			NABA_RSHO			NABA_RUPA			NABA_RELB			NABA_RFRM			NABA_RWRA			NABA_RWRB			NABA_RFIN			NABA_LFWT			NABA_RFWT			NABA_LBWT			NABA_RBWT			NABA_LTHI			NABA_LKNE			NABA_LSHN			NABA_LANK			NABA_LHEE			NABA_LTOE			NABA_RTHI			NABA_RKNE			NABA_RSHN			NABA_RANK			NABA_RHEE			NABA_RTOE		
		X1	Y1	Z1	X2	Y2	Z2	X3	Y3	Z3	X4	Y4	Z4	X5	Y5	Z5	X6	Y6	Z6	X7	Y7	Z7	X8	Y8	Z8	X9	Y9	Z9	X10	Y10	Z10	X11	Y11	Z11	X12	Y12	Z12	X13	Y13	Z13	X14	Y14	Z14	X15	Y15	Z15	X16	Y16	Z16	X17	Y17	Z17	X18	Y18	Z18	X19	Y19	Z19	X20	Y20	Z20	X21	Y21	Z21	X22	Y22	Z22	X23	Y23	Z23	X24	Y24	Z24	X25	Y25	Z25	X26	Y26	Z26	X27	Y27	Z27	X28	Y28	Z28	X29	Y29	Z29	X30	Y30	Z30	X31	Y31	Z31	X32	Y32	Z32	X33	Y33	Z33	X34	Y34	Z34	X35	Y35	Z35	X36	Y36	Z36	X37	Y37	Z37	X38	Y38	Z38	X39	Y39	Z39	X40	Y40	Z40	X41	Y41	Z41
																																																																																																																												
173	5.743	262.06112	1459.25873	-252.05492	92.47964	1425.8284	-249.17089	273.82908	1533.38013	-353.86509	57.92836	1487.04636	-323.51208	249.23901	1291.53183	-417.89585	115.52958	1287.36649	-414.01791	247.41926	1357.34253	-527.69306	98.23256	1352.70462	-516.32507	179.26744	1198.2608	-608.81489	184.31946	1233.50082	-373.37414	184.94528	1134.81903	-329.09542	349.08138	1315.86288	-469.58694	394.93095	1081.35208	-530.41119	407.34539	995.28397	-514.08714	395.25936	923.78502	-538.07243	347.89555	775.45387	-456.14471	417.78706	773.13614	-472.08763	401.74004	713.73726	-428.80157	19.99498	1314.26178	-452.23614	-34.56218	1111.56532	-527.67029	-56.94673	987.44812	-487.77008	-60.34669	893.93623	-485.12196	12.67068	766.28181	-419.5488	-60.87925	754.21494	-415.25936	-41.85779	714.73549	-388.92349	303.88912	916.99867	-409.48669	37.51618	917.01622	-414.67739	257.86158	978.24821	-581.26972	91.1046	997.53845	-585.55904	311.02997	609.35062	-489.0974	304.70425	478.62442	-397.41493	256.66983	300.09411	-320.17132	285.21503	135.72247	-343.7759	226.58865	75.76903	-381.80771	269.55727	75.12549	-195.39082	49.19991	648.03276	-594.73125	59.43712	469.20864	-510.73685	83.46533	301.50984	-577.67628	85.17113	140.10574	-699.87862	137.46854	114.25101	-781.04645	130.25531	59.37802	-590.04879
174	5.777	267.37165	1460.03677	-231.76048	97.86426	1426.92673	-229.6805	279.57243	1534.56558	-333.23212	63.51144	1488.42712	-303.7137	254.56472	1292.88101	-397.75814	121.17708	1289.17252	-394.29604	253.24228	1358.83392	-507.13043	104.0976	1354.47189	-496.66656	185.03279	1199.74556	-588.84499	189.53436	1235.15724	-353.0859	189.81121	1136.33667	-308.92298	354.66431	1317.28104	-449.09763	400.53421	1082.67967	-509.73961	412.64133	996.50177	-493.63895	400.6028	925.30022	-517.92427	354.5874	776.3369	-437.91122	423.73634	774.29344	-453.0331	407.70649	714.11491	-410.57129	25.50719	1316.26389	-433.01853	-27.40334	1114.65134	-511.56826	-51.56918	990.38788	-473.2412	-55.87677	897.00714	-471.6748	14.34876	767.87155	-405.91911	-59.29522	756.56525	-403.49148	-41.47585	716.64886	-376.94851	309.48944	920.27977	-388.92246	43.57774	918.29285	-394.375	264.59715	981.19385	-560.19871	96.74398	999.19487	-565.04257	316.2042	611.88698	-472.56767	308.73989	479.02561	-383.4528	258.11768	298.58511	-311.10569	286.50408	134.40261	-337.59171	228.49758	76.80533	-378.30009	264.48452	66.10201	-189.82992	53.99269	649.41551	-574.12861	62.3866	470.2058	-489.83986	84.16142	303.18954	-563.18089	84.28066	147.64286	-693.22342	136.04482	125.34836	-775.27046	129.39308	59.29514	-588.11703
175	5.81	272.98859	1461.651	-211.30152	103.40879	1428.80646	-209.35482	285.39846	1536.21704	-312.66163	69.17344	1490.38193	-283.29845	260.03931	1295.22598	-377.64	126.55466	1291.4151	-374.2802	258.94369	1361.26099	-487.34688	110.00478	1356.92734	-477.30492	191.18885	1201.98425	-568.60058	194.92702	1237.97585	-333.05885	195.20842	1139.20288	-288.72501	360.45208	1320.13168	-428.65898	406.34209	1085.27695	-488.08159	418.51864	999.41559	-471.65607	407.04105	928.44818	-496.3575	360.42248	778.55179	-418.45711	430.16151	777.22137	-431.85814	413.34103	716.67351	-390.03841	31.0533	1318.97675	-413.34801	-20.43036	1119.03419	-494.67831	-46.4843	994.35875	-458.85242	-51.11093	900.70976	-458.04813	16.57866	770.839	-391.05186	-56.9748	759.88258	-390.8794	-40.21342	719.72229	-364.06456	316.65676	922.99332	-368.36525	50.73146	920.45372	-373.62007	271.02463	983.72383	-539.84276	103.19269	1000.86327	-544.61678	322.1743	615.20679	-455.03567	313.35184	480.42191	-368.26759	259.53527	297.75654	-302.27121	287.63409	134.512	-331.16707	230.368	78.23695	-375.90218	259.85743	62.65975	-186.70258	57.33421	650.30228	-550.95917	64.32115	471.14647	-464.36874	83.90295	305.50304	-545.30712	82.83544	157.18242	-684.10637	134.06424	139.38087	-766.922	128.67076	58.86961	-585.69805
176	5.843	278.55911	1463.23624	-191.1729	108.98732	1430.45105	-189.25798	291.03262	1538.19122	-292.46832	74.76823	1492.35138	-263.008	265.6892	1297.89505	-357.57679	131.98142	1293.89572	-354.49837	264.63264	1363.85468	-467.31251	115.71123	1359.08508	-457.59361	197.53284	1204.21593	-548.58105	200.52378	1240.98595	-313.05687	201.11177	1142.19658	-268.75679	366.10405	1323.29239	-408.46085	413.2465	1088.26897	-466.00658	424.94011	1002.54524	-449.42814	414.02161	931.61804	-474.27807	366.57848	781.29143	-398.01399	436.45817	780.44052	-409.48795	418.94936	719.79149	-368.06683	36.75645	1321.27899	-393.89172	-14.4358	1123.38394	-477.18761	-42.11464	998.06236	-443.70564	-46.93426	904.12025	-443.33324	19.7209	774.12155	-375.4361	-54.12607	763.10936	-375.99159	-37.72249	722.95143	-349.33662	323.59936	925.79742	-347.40986	57.75564	923.29086	-353.09574	277.02188	985.88036	-519.32468	109.81908	1002.22366	-524.67731	326.99871	617.59083	-439.29562	318.31583	480.64697	-356.80592	263.49285	296.534	-294.37199	287.8764	133.86286	-329.14623	229.65405	79.42884	-373.95729	257.35821	58.95772	-184.47947	61.08672	650.75005	-525.75581	64.89801	472.28443	-435.25272	81.89042	308.8961	-524.1523	80.16537	169.2835	-671.91879	131.73761	156.55034	-754.84703	128.32636	57.90812	-582.80239
177	5.877	283.85616	1464.65378	-171.80613	114.27289	1431.62598	-169.99895	296.1825	1539.83871	-272.85635	80.02912	1493.6055	-243.58866	271.48142	1300.21881	-338.00953	137.48004	1295.60654	-335.53749	270.52389	1366.05484	-447.94117	121.87698	1360.69656	-438.90148	204.58883	1205.8989	-529.08569	206.23499	1243.08907	-293.79541	206.97384	1144.52232	-249.14923	372.04201	1326.12595	-388.33481	420.54684	1090.97649	-444.34261	431.91708	1005.22911	-427.38541	421.39221	934.15558	-452.17594	372.54562	783.98918	-376.63868	442.86968	783.19336	-386.4724	424.81308	722.68127	-345.32597	42.74558	1322.76901	-375.31555	-8.74871	1126.49544	-460.04814	-38.2356	1000.89462	-427.7422	-43.17952	906.64444	-427.33315	23.81686	776.77017	-359.45793	-49.86132	765.63034	-359.74789	-33.41737	725.63927	-333.10272	329.78851	927.94411	-326.67179	64.09767	926.22139	-332.91023	283.31398	987.52983	-499.10847	116.77172	1003.3049	-504.92596	329.54517	619.81014	-425.78667	321.97304	480.70564	-346.62334	265.5479	295.44491	-287.22279	287.47435	133.65067	-326.8483	228.6273	80.36426	-372.60735	254.43727	57.6218	-181.92118	64.85091	650.18372	-498.58616	64.76969	473.38593	-402.10304	79.47506	312.82038	-498.65902	78.11834	183.01247	-655.38094	130.54177	175.6855	-737.22275	128.91334	56.50164	-578.53485
178	5.91	288.51782	1465.85938	-153.10834	119.15463	1432.14874	-152.12278	301.064	1541.21353	-254.09595	84.91747	1494.06418	-225.78243	277.3267	1301.78375	-319.13137	143.5322	1296.76239	-317.79215	277.00809	1367.29675	-429.03358	128.21653	1361.63483	-421.33457	211.65617	1206.83067	-510.44624	211.89465	1244.68491	-275.15131	212.47557	1146.19179	-230.24792	378.06698	1328.07251	-368.65829	427.92625	1092.8624	-423.2589	439.08455	1007.05208	-405.72273	428.95073	935.79765	-430.11627	378.36033	786.20346	-354.36409	449.03572	785.31837	-362.76432	430.26924	725.2327	-321.37627	48.76999	1323.66028	-358.06274	-2.95471	1128.36449	-443.53825	-33.80697	1002.76405	-411.83239	-38.85928	908.19534	-410.89912	28.71332	778.77869	-342.6569	-45.02244	767.56935	-342.49901	-28.3622	727.82944	-315.67261	335.78064	929.18388	-307.09705	70.08708	928.43163	-313.05843	289.97242	988.52432	-479.10854	122.35282	1003.52615	-485.95585	333.49422	621.8119	-411.0778	325.60261	480.89687	-334.70726	266.95698	294.35726	-280.21734	288.15735	133.57176	-323.63853	228.93013	81.25992	-371.55781	253.66322	57.03322	-181.29038	68.11381	647.81265	-469.58546	64.98706	473.93856	-366.03806	77.88261	316.77389	-469.35745	77.49626	197.019	-633.72841	130.8504	195.90269	-714.42963	128.5568	56.07601	-571.5678
179	5.943	292.97382	1466.8782	-135.60423	123.62907	1432.7301	-135.29983	305.7342	1542.17331	-236.55951	89.60618	1494.45419	-209.21776	282.75446	1302.69104	-301.17563	149.23897	1297.78214	-301.18994	282.99278	1367.70294	-411.24138	133.99824	1362.24701	-404.47083	217.61803	1207.14783	-492.76325	217.18674	1245.63187	-257.34795	217.57448	1147.06825	-212.50486	383.66959	1328.87833	-350.15095	435.22198	1093.64731	-402.61024	445.97111	1007.81227	-384.24274	436.3792	936.12778	-408.19351	384.15764	787.72385	-331.33625	455.03078	786.66359	-338.50315	435.57735	727.10442	-296.69424	54.50795	1324.37576	-341.43154	3.24333	1129.4854	-427.57679	-28.72485	1004.0657	-396.41022	-33.45077	909.09653	-394.68708	33.99842	780.39986	-324.9786	-39.70437	768.95035	-325.17731	-23.18655	729.64066	-297.81805	341.28719	930.36438	-289.04755	75.81089	929.14955	-294.44798	295.93454	989.17778	-460.19257	126.51299	1002.81693	-468.08918	339.42333	623.20309	-395.9137	329.50981	480.88978	-322.59426	268.68685	293.22748	-273.40059	288.81655	133.37918	-320.68592	229.78733	82.52117	-370.84465	253.2929	56.62457	-180.62569	70.93525	643.63457	-440.149	66.01207	474.13982	-328.0275	77.96155	320.91637	-436.74416	77.59443	210.84011	-607.728	131.84876	216.09007	-686.76361	128.19331	56.80398	-562.42527
180	5.977	297.2715	1467.65549	-119.218	127.9229	1433.64151	-119.30825	310.40394	1542.52274	-220.44554	94.13625	1495.11597	-193.5195	287.53235	1302.86072	-284.29136	154.22738	1298.21869	-284.93744	288.21487	1367.61429	-394.4767	139.12881	1362.72049	-388.37353	222.80619	1207.31674	-476.24023	221.85667	1245.81139	-240.71812	221.98711	1147.19269	-195.98227	388.56937	1328.66608	-332.86091	441.91185	1093.40263	-382.81513	452.53922	1007.67609	-363.55934	443.39378	935.3849	-386.62956	389.53709	788.6335	-307.57389	460.56278	787.13623	-313.7748	440.53638	728.63945	-271.30386	59.43378	1325.03632	-325.45979	9.06965	1129.89075	-411.94729	-23.02105	1004.59076	-381.11576	-27.33206	909.35791	-378.51341	39.56631	781.90308	-305.99043	-33.95207	769.92302	-307.68356	-17.76153	730.97008	-279.72977	345.61947	930.83031	-271.74406	80.23798	929.21707	-277.92538	300.51626	989.4294	-443.1559	130.81738	1002.02271	-451.96915	343.34015	624.12312	-382.34009	332.51389	480.64411	-311.65092	269.96088	292.10356	-266.98923	289.24427	133.27269	-318.07858	229.98457	83.65373	-369.80389	253.18394	56.46624	-180.35669	74.33136	639.52358	-411.25736	68.05945	475.38326	-289.86843	79.5918	325.43804	-401.67496	78.09153	222.8264	-577.19658	133.02558	233.94432	-653.82706	127.77609	58.18512	-549.92821
181	6.01	301.36444	1468.2753	-103.72631	131.94181	1434.59595	-104.06586	314.85392	1542.75894	-205.28217	98.41744	1495.96146	-178.62179	291.34287	1302.91199	-268.40429	158.31502	1298.85483	-269.73886	292.99723	1367.63641	-378.54713	143.80484	1363.34259	-373.2745	227.65551	1207.74109	-460.90496	225.59711	1245.65819	-225.38792	225.24342	1147.10556	-180.63665	392.77981	1328.30826	-316.30108	447.29439	1092.68082	-364.07177	458.06812	1007.10449	-343.83015	449.3734	934.34395	-365.78835	394.06712	789.63615	-282.97495	465.52921	787.68524	-289.65572	445.19402	730.28419	-245.99697	63.67398	1325.74615	-310.66217	13.99435	1129.7422	-396.69277	-17.43178	1004.66812	-365.44868	-21.43177	909.39064	-361.90083	45.23717	783.16292	-286.81747	-27.96992	770.61508	-289.53512	-12.03091	732.11357	-261.16278	349.08886	931.37917	-255.5954	83.90134	929.89632	-262.90943	304.34849	989.61716	-428.00468	135.34475	1001.73058	-437.23686	345.3273	624.90204	-370.4768	334.98367	480.38692	-302.3583	271.3056	290.97332	-261.28128	289.60073	133.31981	-316.08463	230.05314	84.75079	-368.82561	253.28697	56.34415	-180.23813	77.81077	636.96861	-383.73161	70.93871	478.47744	-252.81214	82.16622	330.18101	-365.34019	78.59962	232.81166	-543.87981	133.7767	247.60824	-618.34656	124.45716	61.11916	-530.66292
